<?xml version="1.0" standalone="no"?><!DOCTYPE svg PUBLIC "-//W3C//DTD SVG 1.1//EN" "http://www.w3.org/Graphics/SVG/1.1/DTD/svg11.dtd"><svg height="1024" node-id="1" sillyvg="true" template-height="1024" template-width="1024" version="1.1" viewBox="0 0 1024 1024" width="1024" xmlns="http://www.w3.org/2000/svg" xmlns:xlink="http://www.w3.org/1999/xlink"><defs node-id="127"><linearGradient gradientUnits="objectBoundingBox" id="paint0_linear_135_12811" node-id="82" spreadMethod="pad" x1="517.293" x2="517.293" y1="76.6899" y2="603.548"><stop offset="0" stop-color="#ffffff" stop-opacity="0"></stop><stop offset="1" stop-color="#e5ebfd"></stop></linearGradient><linearGradient gradientUnits="objectBoundingBox" id="paint1_linear_135_12811" node-id="85" spreadMethod="pad" x1="884.672" x2="149.46" y1="735.648" y2="735.648"><stop offset="0" stop-color="#5192f7"></stop><stop offset="0.230769" stop-color="#9ac4fd"></stop><stop offset="0.480769" stop-color="#4085f7"></stop><stop offset="0.716346" stop-color="#9ac4fd"></stop><stop offset="1" stop-color="#326fee"></stop></linearGradient><linearGradient gradientUnits="objectBoundingBox" id="paint2_linear_135_12811" node-id="91" spreadMethod="pad" x1="173.519" x2="873.855" y1="687.071" y2="687.071"><stop offset="0" stop-color="#4982da"></stop><stop offset="1" stop-color="#3168dc"></stop></linearGradient><linearGradient gradientUnits="objectBoundingBox" id="paint3_linear_135_12811" node-id="94" spreadMethod="pad" x1="884.672" x2="149.46" y1="651.361" y2="651.361"><stop offset="0" stop-color="#8fbdf7"></stop><stop offset="0.508356" stop-color="#9ac4fd"></stop><stop offset="1" stop-color="#dae7fe"></stop></linearGradient><linearGradient gradientUnits="objectBoundingBox" id="paint4_linear_135_12811" node-id="98" spreadMethod="pad" x1="173.519" x2="873.855" y1="603.536" y2="603.536"><stop offset="0" stop-color="#e3eefe"></stop><stop offset="1" stop-color="#cce1fb"></stop></linearGradient><linearGradient gradientUnits="objectBoundingBox" id="paint5_linear_135_12811" node-id="101" spreadMethod="pad" x1="170.307" x2="873.855" y1="603.536" y2="603.536"><stop offset="0" stop-color="#ffffff"></stop><stop offset="0.259157" stop-color="#f0f4ff"></stop><stop offset="0.485577" stop-color="#ffffff"></stop><stop offset="0.784019" stop-color="#ddebfd"></stop><stop offset="1" stop-color="#ffffff"></stop></linearGradient><linearGradient gradientUnits="objectBoundingBox" id="paint6_linear_135_12811" node-id="107" spreadMethod="pad" x1="444.321" x2="547.408" y1="183.436" y2="521.749"><stop offset="0" stop-color="#2780df"></stop><stop offset="0.375" stop-color="#2677fd"></stop><stop offset="0.672736" stop-color="#deebff"></stop><stop offset="1" stop-color="#1f63fb"></stop></linearGradient><linearGradient gradientUnits="objectBoundingBox" id="paint7_linear_135_12811" node-id="112" spreadMethod="pad" x1="695.107" x2="325.025" y1="275.942" y2="203.117"><stop offset="0" stop-color="#80cafc"></stop><stop offset="1" stop-color="#359dfe"></stop></linearGradient><linearGradient gradientUnits="objectBoundingBox" id="paint8_linear_135_12811" node-id="115" spreadMethod="pad" x1="488.336" x2="537.282" y1="147.635" y2="546.267"><stop offset="0" stop-color="#b1edff"></stop><stop offset="1" stop-color="#78c3ff"></stop></linearGradient><linearGradient gradientUnits="objectBoundingBox" id="paint9_linear_135_12811" node-id="118" spreadMethod="pad" x1="686.463" x2="331.319" y1="279.561" y2="210.017"><stop offset="0" stop-color="#80cafc"></stop><stop offset="1" stop-color="#359dfe"></stop></linearGradient><linearGradient gradientUnits="objectBoundingBox" id="paint10_linear_135_12811" node-id="121" spreadMethod="pad" x1="488.134" x2="535.318" y1="155.75" y2="540.032"><stop offset="0" stop-color="#b1edff"></stop><stop offset="1" stop-color="#78c3ff"></stop></linearGradient><filter filterUnits="objectBoundingBox" height="354.18097" id="filter0_f_135_12811" node-id="74" width="786.6129" x="123.759" y="577.835"><feFlood color-interpolation-filters="sRGB" flood-color="#000000" flood-opacity="0" result="BackgroundImageFix"></feFlood><feBlend color-interpolation-filters="sRGB" in="SourceGraphic" in2="BackgroundImageFix" mode="normal" result="shape"></feBlend><feGaussianBlur color-interpolation-filters="sRGB" in="shape" result="effect1_foregroundBlur_135_12811" stdDeviation="12.8502 12.8502"></feGaussianBlur></filter><filter filterUnits="objectBoundingBox" height="124.505005" id="filter1_f_135_12811" node-id="78" width="349.78497" x="337.117" y="562.388"><feFlood color-interpolation-filters="sRGB" flood-color="#000000" flood-opacity="0" result="BackgroundImageFix"></feFlood><feBlend color-interpolation-filters="sRGB" in="SourceGraphic" in2="BackgroundImageFix" mode="normal" result="shape"></feBlend><feGaussianBlur color-interpolation-filters="sRGB" in="shape" result="effect1_foregroundBlur_135_12811" stdDeviation="15.7662 15.7662"></feGaussianBlur></filter><clipPath id="clip0_135_12811" node-id="124"><path d="M 0.00 0.00 L 1024.00 0.00 L 1024.00 1024.00 L 0.00 1024.00 Z" fill="#000000" fill-rule="nonzero" node-id="230" stroke="none" target-height="1024" target-width="1024" target-x="0" target-y="0"></path></clipPath></defs><g clip-path="url(#clip0_135_12811)" id="sillyvg_g_0" node-id="234"><path d="M 0.00 0.00 L 1024.00 0.00 L 1024.00 1024.00 L 0.00 1024.00 Z" fill="#ffffff" fill-rule="nonzero" node-id="236" stroke="none" target-height="1024" target-width="1024" target-x="0" target-y="0"></path><path d="M 528.66 675.37 C 528.66 665.51 538.11 658.40 547.59 661.14 L 946.99 776.54 C 950.29 777.49 952.57 780.51 952.57 783.95 L 952.57 787.86 C 952.75 783.04 958.13 780.65 958.13 785.55 L 958.13 785.96 C 958.14 785.82 958.14 785.69 958.14 785.56 L 958.14 816.40 C 958.14 816.62 958.13 816.83 958.10 817.03 C 957.89 819.86 956.17 822.58 952.92 823.70 L 536.85 966.26 C 522.18 971.29 506.25 971.26 491.59 966.17 L 81.06 823.60 C 77.59 822.40 75.88 819.36 75.88 816.33 L 75.88 785.49 C 75.88 780.55 81.38 783.05 81.38 787.99 L 81.38 801.39 C 81.46 801.13 81.55 800.87 81.66 800.61 C 81.48 799.96 81.38 799.28 81.38 798.56 L 81.38 783.82 C 81.38 780.41 83.62 777.41 86.88 776.43 L 470.48 661.55 C 479.95 658.71 489.49 665.81 489.49 675.70 C 489.49 682.23 485.20 687.98 478.95 689.85 L 106.20 801.49 L 106.22 801.49 L 489.48 686.71 C 502.25 682.88 515.85 682.82 528.65 686.52 L 927.18 801.66 L 927.19 801.66 L 539.36 689.60 C 533.02 687.77 528.66 681.97 528.66 675.37 Z M 952.93 809.11 L 952.93 809.11 L 952.93 805.39 C 952.93 805.39 952.93 805.39 952.93 805.39 L 952.93 809.11 Z M 952.56 798.93 C 952.54 799.52 952.47 800.09 952.33 800.64 C 952.41 800.84 952.49 801.05 952.56 801.26 L 952.56 798.93 Z M 500.23 653.55 C 506.04 652.77 511.93 652.74 517.76 653.45 C 524.31 654.24 528.66 660.21 528.66 666.81 C 528.66 676.67 518.99 683.74 509.13 683.78 C 499.24 683.82 489.49 676.75 489.49 666.85 C 489.49 660.33 493.76 654.41 500.23 653.55 Z" fill="#e7f0fe" fill-rule="nonzero" node-id="238" stroke="none" target-height="318.55103" target-width="882.2618" target-x="75.8792" target-y="652.738"></path><path d="M 489.48 655.90 C 502.24 652.08 515.84 652.01 528.65 655.71 L 952.55 778.19 C 959.79 780.28 960.04 790.45 952.91 792.89 L 536.84 935.45 C 522.17 940.48 506.24 940.45 491.59 935.36 L 81.05 792.79 C 73.99 790.34 74.20 780.27 81.37 778.12 L 489.48 655.90 Z" fill="#d8e4fe" fill-rule="nonzero" node-id="240" stroke="none" target-height="288.471" target-width="886.0528" target-x="73.9862" target-y="652.01"></path><path d="M 147.85 76.69 L 886.74 76.69 L 886.74 603.55 L 147.85 603.55 Z" fill="url(#paint0_linear_135_12811)" fill-rule="nonzero" node-id="242" stroke="none" target-height="526.858" target-width="738.886" target-x="147.85" target-y="76.6899"></path><path d="M 510.36 603.54 C 520.21 603.47 526.77 612.59 526.77 622.44 L 526.77 646.09 C 527.25 625.94 546.70 611.56 566.19 617.19 L 875.37 706.52 C 878.12 707.32 880.01 709.84 880.01 712.70 L 880.01 727.16 C 880.02 727.17 880.02 727.19 880.03 727.21 L 880.03 716.20 C 880.03 712.04 884.67 709.90 884.67 714.06 L 884.67 778.32 C 884.67 778.15 884.66 777.99 884.65 777.82 L 884.65 777.87 C 884.66 778.02 884.67 778.17 884.67 778.32 C 884.67 780.85 883.23 783.39 880.33 784.39 L 533.60 903.19 C 521.38 907.38 508.10 907.36 495.89 903.12 L 153.78 784.31 C 150.89 783.31 149.46 780.78 149.46 778.25 L 149.46 713.98 C 149.46 709.98 153.78 711.84 154.03 715.71 L 154.03 712.60 C 154.03 709.76 155.89 707.26 158.61 706.45 L 454.51 617.83 C 474.26 611.91 494.12 626.70 494.12 647.31 C 494.12 660.90 485.20 672.89 472.17 676.79 L 234.34 748.02 L 234.37 748.03 L 494.13 670.23 C 504.77 667.04 516.10 666.99 526.77 670.07 L 797.81 748.38 L 797.84 748.37 L 549.06 676.49 C 536.11 672.75 527.11 661.05 526.77 647.64 L 526.77 653.60 C 526.77 661.84 518.76 667.76 510.52 667.79 C 502.23 667.82 494.13 661.88 494.13 653.59 L 494.13 622.43 C 494.13 612.66 500.59 603.60 510.36 603.54 Z" fill="#86daff" fill-rule="nonzero" filter="url(#filter0_f_135_12811)" group-id="1" node-id="246" stroke="none" target-height="303.90802" target-width="735.213" target-x="149.459" target-y="603.474"></path><path d="M 510.36 584.27 C 520.21 584.20 526.77 593.32 526.77 603.17 L 526.77 626.84 C 527.25 606.69 546.70 592.31 566.19 597.94 L 875.37 687.27 C 878.12 688.07 880.01 690.59 880.01 693.45 L 880.01 707.89 C 880.02 707.91 880.02 707.93 880.03 707.95 L 880.03 696.91 C 880.03 692.75 884.67 690.62 884.67 694.78 L 884.67 759.03 C 884.67 758.87 884.66 758.70 884.65 758.54 L 884.65 758.59 C 884.66 758.74 884.67 758.88 884.67 759.03 C 884.67 761.57 883.23 764.11 880.33 765.10 L 533.60 883.91 C 527.48 886.00 521.10 887.04 514.72 887.03 C 514.71 887.03 514.71 887.03 514.70 887.03 C 514.66 887.03 514.62 887.03 514.58 887.03 C 508.26 887.00 501.94 885.93 495.89 883.83 L 456.31 870.09 C 456.06 870.01 455.81 869.93 455.57 869.84 L 158.08 766.53 C 157.97 766.49 157.86 766.45 157.75 766.41 L 153.78 765.03 C 150.89 764.02 149.47 761.50 149.46 758.98 L 149.46 694.73 C 149.46 690.73 153.78 692.59 154.03 696.46 L 154.03 693.35 C 154.03 690.51 155.89 688.01 158.61 687.20 L 454.51 598.58 C 474.26 592.66 494.12 607.45 494.12 628.06 C 494.12 641.34 485.60 653.09 473.06 657.26 L 494.13 650.95 C 499.45 649.35 504.94 648.54 510.43 648.52 C 502.18 648.50 494.13 642.58 494.13 634.32 L 494.13 603.16 C 494.13 593.39 500.59 584.33 510.36 584.27 Z M 526.77 634.33 C 526.77 642.55 518.78 648.47 510.56 648.52 C 516.01 648.50 521.48 649.26 526.77 650.79 L 548.15 656.96 C 535.69 652.95 527.11 641.49 526.77 628.39 L 526.77 634.33 Z" fill="url(#paint1_linear_135_12811)" fill-rule="nonzero" node-id="249" stroke="none" target-height="302.841" target-width="735.213" target-x="149.459" target-y="584.204"></path><path d="M 494.10 581.84 C 504.74 578.65 516.07 578.60 526.74 581.68 L 880.00 683.75 C 886.03 685.49 886.24 693.96 880.30 696.00 L 533.57 814.80 C 521.35 818.99 508.07 818.96 495.86 814.72 L 153.75 695.92 C 147.86 693.87 148.04 685.48 154.01 683.69 L 494.10 581.84 Z" fill="url(#paint2_linear_135_12811)" fill-rule="nonzero" node-id="251" stroke="none" target-height="240.393" target-width="738.377" target-x="147.859" target-y="578.598"></path><path d="M 510.36 499.98 C 520.21 499.92 526.77 509.03 526.77 518.88 L 526.77 542.55 C 527.25 522.40 546.70 508.02 566.19 513.65 L 875.37 602.98 C 878.12 603.78 880.01 606.30 880.01 609.16 L 880.01 623.62 C 880.02 623.63 880.02 623.65 880.03 623.67 L 880.03 612.62 C 880.03 608.46 884.67 606.33 884.67 610.49 L 884.67 674.74 C 884.67 674.58 884.66 674.41 884.65 674.25 L 884.65 674.30 C 884.66 674.45 884.67 674.59 884.67 674.74 C 884.67 677.28 883.23 679.82 880.33 680.81 L 876.25 682.21 C 876.16 682.25 876.07 682.28 875.97 682.31 L 573.83 785.84 C 573.67 785.90 573.51 785.95 573.36 786.00 L 533.60 799.62 C 527.68 801.65 521.50 802.68 515.33 802.74 C 515.12 802.74 514.91 802.75 514.70 802.75 C 514.49 802.75 514.28 802.74 514.07 802.73 C 507.92 802.65 501.78 801.59 495.89 799.54 L 456.80 785.97 C 456.39 785.84 455.98 785.71 455.57 785.57 L 158.08 682.26 C 157.88 682.19 157.70 682.12 157.51 682.03 L 153.78 680.74 C 150.89 679.73 149.47 677.21 149.46 674.69 L 149.46 610.44 C 149.46 606.44 153.78 608.30 154.03 612.17 L 154.03 609.05 C 154.03 606.21 155.89 603.71 158.61 602.89 L 454.51 514.27 C 474.26 508.36 494.12 523.14 494.12 543.75 C 494.12 557.31 485.24 569.27 472.28 573.20 L 494.13 566.66 C 499.44 565.07 504.93 564.25 510.42 564.23 C 502.17 564.21 494.13 558.28 494.13 550.03 L 494.13 518.87 C 494.13 509.10 500.59 500.04 510.36 499.98 Z M 526.77 550.04 C 526.77 558.26 518.78 564.18 510.56 564.23 C 516.01 564.21 521.48 564.97 526.77 566.50 L 548.13 572.67 C 535.68 568.65 527.11 557.19 526.77 544.10 L 526.77 550.04 Z" fill="url(#paint3_linear_135_12811)" fill-rule="nonzero" node-id="253" stroke="none" target-height="302.832" target-width="735.213" target-x="149.459" target-y="499.915"></path><path d="M 530.45 722.15 C 520.26 725.64 509.19 725.62 499.02 722.08 L 166.30 606.54 L 496.87 507.54 C 505.73 504.88 515.17 504.84 524.07 507.40 L 867.54 606.64 L 530.45 722.15 Z" fill="url(#paint4_linear_135_12811)" fill-rule="nonzero" node-id="255" stroke="url(#paint5_linear_135_12811)" stroke-linecap="butt" stroke-width="19.2753" target-height="220.80496" target-width="701.244" target-x="166.298" target-y="504.83603"></path><path d="M 499.97 541.76 C 506.25 539.87 512.95 539.84 519.25 541.66 L 727.99 601.97 C 731.55 603.00 731.68 608.01 728.17 609.21 L 523.29 679.41 C 516.07 681.89 508.22 681.87 501.01 679.37 L 298.85 609.16 C 295.37 607.96 295.48 603.00 299.01 601.94 L 499.97 541.76 Z" fill="#ffffff" fill-opacity="0.77" fill-rule="nonzero" node-id="257" stroke="none" target-height="142.047" target-width="436.30203" target-x="295.374" target-y="539.84"></path><path d="M 655.37 624.64 C 655.37 641.61 591.19 655.36 512.01 655.36 C 432.83 655.36 368.65 641.61 368.65 624.64 C 368.65 607.67 432.83 593.92 512.01 593.92 C 591.19 593.92 655.37 607.67 655.37 624.64 Z" fill="#a4c1fb" fill-rule="nonzero" filter="url(#filter1_f_135_12811)" group-id="2" node-id="261" stroke="none" target-height="61.43994" target-width="286.71997" target-x="368.65002" target-y="593.92004"></path><path d="M 348.76 530.05 C 341.54 538.22 337.52 548.83 337.52 559.35 C 337.52 569.87 341.54 579.49 348.76 585.89 C 351.50 587.80 354.35 589.40 357.28 590.65 C 363.85 593.43 370.87 594.50 378.08 593.62 C 388.53 592.34 398.97 587.01 405.80 579.29 L 522.67 447.19 L 465.64 398.76 L 348.76 530.05 Z M 662.03 263.77 L 712.24 231.30 L 740.75 173.98 L 711.43 148.04 L 656.81 183.08 L 630.71 237.27 L 566.85 307.83 L 599.78 336.96 L 662.03 263.77 Z" fill="#2679f5" fill-rule="nonzero" node-id="264" stroke="none" target-height="446.458" target-width="403.23203" target-x="337.52" target-y="148.045"></path><path d="M 691.17 398.09 C 681.36 393.92 670.25 392.01 658.41 392.89 L 652.38 393.63 C 644.35 394.62 637.52 396.67 631.50 398.62 L 500.57 280.76 C 501.78 274.54 503.38 267.47 503.38 259.37 L 503.38 254.11 C 502.18 234.84 493.34 217.31 478.48 205.38 C 473.84 201.79 468.69 198.80 463.23 196.48 C 451.68 191.57 438.68 189.63 425.87 191.20 C 410.61 193.07 398.56 197.39 390.12 204.90 L 380.89 213.31 L 435.91 261.99 L 435.91 264.02 L 437.11 265.89 C 438.72 268.93 437.92 274.69 434.70 277.52 L 433.50 278.88 L 432.70 280.60 C 431.89 281.91 430.29 283.73 426.27 284.22 L 423.06 284.61 C 421.75 283.72 420.44 283.00 419.35 282.53 C 418.77 282.28 418.26 282.11 417.84 282.02 L 417.43 282.07 L 359.20 230.14 L 353.58 245.40 C 347.95 259.85 345.54 271.07 345.54 279.97 C 345.54 300.61 353.17 319.09 366.83 331.98 C 372.17 337.02 378.36 341.02 385.15 343.91 C 395.74 348.40 407.77 350.18 420.25 348.89 L 425.87 348.20 C 433.90 347.22 440.73 345.16 446.75 342.80 L 579.29 460.47 C 578.09 466.69 576.48 473.76 576.48 481.85 L 576.48 487.92 C 577.68 508.41 586.12 526.39 600.58 538.38 C 605.57 542.51 611.08 545.86 616.99 548.37 C 628.20 553.13 640.84 554.88 653.99 553.26 C 668.05 551.54 678.49 547.42 688.93 540.07 L 700.18 531.81 L 645.16 482.73 C 644.75 482.37 643.95 481.26 643.55 480.90 L 641.14 477.56 C 639.93 474.47 641.14 469.46 643.95 466.69 L 644.75 465.78 C 646.76 463.51 651.58 460.49 653.99 460.20 L 655.20 460.05 C 655.20 460.05 655.25 460.07 655.35 460.11 C 655.41 460.13 655.48 460.16 655.57 460.19 C 655.83 460.29 656.17 460.42 656.43 460.52 C 656.52 460.55 656.59 460.58 656.66 460.61 C 656.75 460.64 656.80 460.66 656.80 460.66 C 657.54 460.82 658.13 461.00 658.66 461.18 C 658.84 461.24 659.00 461.30 659.17 461.36 C 659.32 461.42 659.47 461.47 659.62 461.53 L 660.02 461.48 L 660.42 462.64 L 718.65 514.17 L 724.28 498.91 C 728.29 488.30 732.31 477.69 732.31 464.34 C 732.60 433.57 715.98 408.62 691.17 398.09 Z" fill="#2679f5" fill-rule="nonzero" node-id="266" stroke="none" target-height="365.253" target-width="387.05402" target-x="345.54297" target-y="189.627"></path><path d="M 302.78 223.82 L 308.40 208.56 L 359.19 230.12 L 353.57 245.38 L 302.78 223.82 Z" fill="#ff3333" fill-rule="nonzero" node-id="268" stroke="none" target-height="36.81801" target-width="56.41501" target-x="302.78" target-y="208.56"></path><path d="M 294.75 258.40 C 294.75 249.49 297.16 238.27 302.78 223.82 L 353.57 245.38 C 347.95 259.83 345.54 271.05 345.54 279.96 L 294.75 258.40 Z" fill="#ff3333" fill-rule="nonzero" node-id="270" stroke="none" target-height="56.132004" target-width="58.824005" target-x="294.75" target-y="223.825"></path><path d="M 330.08 191.75 L 339.32 183.33 L 390.11 204.89 L 380.87 213.31 L 330.08 191.75 Z" fill="#ff3333" fill-rule="nonzero" node-id="272" stroke="none" target-height="29.978012" target-width="60.029022" target-x="330.08" target-y="183.33"></path><path d="M 316.04 310.41 C 302.38 297.52 294.75 279.04 294.75 258.40 L 345.54 279.96 C 345.54 300.60 353.17 319.08 366.83 331.97 L 316.04 310.41 Z" fill="#ff3333" fill-rule="nonzero" node-id="274" stroke="none" target-height="73.573" target-width="72.078" target-x="294.75" target-y="258.4"></path><path d="M 339.33 183.33 C 347.76 175.82 359.81 171.51 375.07 169.63 L 425.87 191.19 C 410.60 193.07 398.56 197.38 390.12 204.89 L 339.33 183.33 Z" fill="#ff3333" fill-rule="nonzero" node-id="276" stroke="none" target-height="35.256012" target-width="86.53702" target-x="339.33" target-y="169.635"></path><path d="M 308.40 208.56 L 366.63 260.49 L 417.43 282.05 L 359.19 230.12 L 308.40 208.56 Z" fill="#2679f5" fill-rule="nonzero" node-id="278" stroke="none" target-height="73.487" target-width="109.028046" target-x="308.4" target-y="208.56"></path><path d="M 385.10 240.44 L 330.08 191.75 L 380.87 213.32 L 435.90 262.00 L 385.10 240.44 Z" fill="#ff3333" fill-rule="nonzero" node-id="280" stroke="none" target-height="70.23999" target-width="105.81503" target-x="330.08" target-y="191.755"></path><path d="M 334.35 322.33 C 327.56 319.44 321.37 315.44 316.03 310.40 L 366.82 331.96 C 372.16 337.00 378.35 341.00 385.14 343.89 L 334.35 322.33 Z" fill="#ff3333" fill-rule="nonzero" node-id="282" stroke="none" target-height="33.48703" target-width="69.11401" target-x="316.03" target-y="310.4"></path><path d="M 375.07 169.64 C 387.88 168.07 400.88 170.01 412.43 174.92 L 463.18 196.46 C 451.64 191.57 438.66 189.63 425.86 191.20 L 375.07 169.64 Z" fill="#ff3333" fill-rule="nonzero" node-id="284" stroke="none" target-height="28.396011" target-width="88.11395" target-x="375.07004" target-y="168.066"></path><path d="M 366.63 260.50 L 367.03 260.45 L 417.82 282.01 L 417.42 282.06 L 366.63 260.50 Z" fill="#ff3333" fill-rule="nonzero" node-id="286" stroke="none" target-height="21.608978" target-width="51.192993" target-x="366.63" target-y="260.45"></path><path d="M 367.04 260.45 C 367.46 260.54 367.98 260.71 368.56 260.96 L 419.26 282.48 C 419.29 282.50 419.32 282.51 419.35 282.52 L 419.26 282.48 C 418.71 282.26 418.23 282.10 417.83 282.01 L 367.04 260.45 Z" fill="#ff3333" fill-rule="nonzero" node-id="288" stroke="none" target-height="22.073975" target-width="52.311005" target-x="367.04" target-y="260.45"></path><path d="M 368.55 260.95 C 369.64 261.42 370.94 262.14 372.25 263.03 L 423.04 284.59 C 421.74 283.70 420.43 282.98 419.34 282.51 L 368.55 260.95 Z" fill="#ff3333" fill-rule="nonzero" node-id="290" stroke="none" target-height="23.640991" target-width="54.49405" target-x="368.54996" target-y="260.95"></path><path d="M 372.25 263.04 L 375.46 262.64 L 426.25 284.20 L 423.04 284.59 L 372.25 263.04 Z" fill="#ff3333" fill-rule="nonzero" node-id="292" stroke="none" target-height="21.95398" target-width="54.005005" target-x="372.25" target-y="262.64"></path><path d="M 385.11 242.44 L 385.11 240.42 L 435.90 261.98 L 435.90 264.00 L 385.11 242.44 Z" fill="#ff3333" fill-rule="nonzero" node-id="294" stroke="none" target-height="23.582993" target-width="50.792023" target-x="385.11" target-y="240.42"></path><path d="M 386.32 244.32 L 385.11 242.45 L 435.90 264.01 L 437.11 265.88 L 386.32 244.32 Z" fill="#ff3333" fill-rule="nonzero" node-id="296" stroke="none" target-height="23.435013" target-width="51.99698" target-x="385.11" target-y="242.45"></path><path d="M 375.47 262.65 C 379.49 262.16 381.09 260.34 381.90 259.03 L 432.69 280.59 C 431.89 281.90 430.28 283.72 426.26 284.21 L 375.47 262.65 Z" fill="#ff3333" fill-rule="nonzero" node-id="298" stroke="none" target-height="25.182007" target-width="57.218018" target-x="375.47" target-y="259.03"></path><path d="M 383.91 255.95 C 387.12 253.12 387.93 247.36 386.32 244.32 L 437.11 265.88 C 438.72 268.92 437.91 274.68 434.70 277.51 L 383.91 255.95 Z" fill="#ff3333" fill-rule="nonzero" node-id="300" stroke="none" target-height="33.186005" target-width="54.807983" target-x="383.91" target-y="244.32"></path><path d="M 381.90 259.02 L 382.70 257.31 L 433.50 278.87 L 432.69 280.58 L 381.90 259.02 Z" fill="#ff3333" fill-rule="nonzero" node-id="302" stroke="none" target-height="23.277008" target-width="51.595" target-x="381.9" target-y="257.305"></path><path d="M 382.71 257.30 L 383.92 255.94 L 434.71 277.50 L 433.50 278.86 L 382.71 257.30 Z" fill="#ff3333" fill-rule="nonzero" node-id="304" stroke="none" target-height="22.922012" target-width="51.99701" target-x="382.71" target-y="255.93999"></path><path d="M 286.72 537.79 C 286.72 527.26 290.74 516.66 297.96 508.49 L 348.76 530.04 C 341.53 538.22 337.51 548.83 337.51 559.35 L 286.72 537.79 Z" fill="#ff3333" fill-rule="nonzero" node-id="306" stroke="none" target-height="50.861023" target-width="62.036987" target-x="286.72" target-y="508.485"></path><path d="M 334.37 322.33 C 344.95 326.81 356.97 328.58 369.43 327.30 L 420.23 348.86 C 407.75 350.14 395.72 348.37 385.13 343.88 L 334.37 322.33 Z M 446.74 342.78 C 440.71 345.14 433.88 347.19 425.85 348.18 L 425.84 348.17 L 420.23 348.86 L 369.44 327.30 L 375.06 326.61 L 375.07 326.62 C 383.10 325.63 389.92 323.58 395.94 321.22 L 446.74 342.78 Z" fill="#2679f5" fill-rule="nonzero" node-id="308" stroke="none" target-height="28.923004" target-width="112.36597" target-x="334.37" target-y="321.22"></path><path d="M 297.96 564.32 C 290.74 557.92 286.72 548.30 286.72 537.78 L 337.51 559.34 C 337.51 569.86 341.53 579.48 348.76 585.88 L 297.96 564.32 Z" fill="#ff3333" fill-rule="nonzero" node-id="310" stroke="none" target-height="48.099976" target-width="62.036987" target-x="286.72" target-y="537.78"></path><path d="M 306.48 569.07 C 303.54 567.82 300.69 566.23 297.96 564.31 L 348.75 585.87 C 351.48 587.79 354.33 589.38 357.27 590.63 L 306.48 569.07 Z" fill="#ff3333" fill-rule="nonzero" node-id="312" stroke="none" target-height="26.31903" target-width="59.310974" target-x="297.96" target-y="564.31"></path><path d="M 297.96 508.47 L 414.83 377.18 L 465.62 398.74 L 348.75 530.03 L 297.96 508.47 Z" fill="#ff3333" fill-rule="nonzero" node-id="314" stroke="none" target-height="152.85199" target-width="167.66501" target-x="297.96" target-y="377.18"></path><path d="M 405.78 579.27 C 398.96 586.99 388.51 592.32 378.07 593.60 L 378.07 593.60 C 370.86 594.49 363.84 593.42 357.27 590.63 L 306.50 569.08 C 313.06 571.86 320.07 572.93 327.28 572.04 L 327.28 572.04 C 337.72 570.76 348.17 565.43 354.99 557.72 L 405.78 579.27 Z M 465.63 398.75 L 522.64 447.16 L 522.65 447.16 L 522.65 447.17 L 522.66 447.18 L 522.65 447.17 L 405.78 579.27 L 354.99 557.71 L 471.86 425.61 L 414.84 377.19 L 465.63 398.75 Z" fill="#2679f5" fill-rule="nonzero" node-id="316" stroke="none" target-height="217.302" target-width="216.16302" target-x="306.5" target-y="377.185"></path><path d="M 528.49 438.89 L 395.95 321.23 L 446.74 342.79 L 579.28 460.45 L 528.49 438.89 Z" fill="#ff3333" fill-rule="nonzero" node-id="318" stroke="none" target-height="139.22296" target-width="183.328" target-x="395.95" target-y="321.23"></path><path d="M 516.06 286.25 L 579.92 215.69 L 630.71 237.25 L 566.85 307.81 L 516.06 286.25 Z" fill="#ff3333" fill-rule="nonzero" node-id="320" stroke="none" target-height="92.12001" target-width="114.650024" target-x="516.06" target-y="215.68999"></path><path d="M 548.99 315.40 L 516.06 286.26 L 566.85 307.82 L 599.78 336.96 L 548.99 315.40 Z" fill="#ff3333" fill-rule="nonzero" node-id="322" stroke="none" target-height="50.69699" target-width="83.724976" target-x="516.06" target-y="286.26"></path><path d="M 579.91 215.71 L 606.01 161.51 L 656.81 183.07 L 630.70 237.26 L 579.91 215.71 Z" fill="#ff3333" fill-rule="nonzero" node-id="324" stroke="none" target-height="75.75" target-width="76.89703" target-x="579.91" target-y="161.515"></path><path d="M 606.01 161.51 L 660.63 126.48 L 711.42 148.04 L 656.80 183.07 L 606.01 161.51 Z" fill="#ff3333" fill-rule="nonzero" node-id="326" stroke="none" target-height="56.592003" target-width="105.4129" target-x="606.01" target-y="126.48"></path><path d="M 525.68 460.29 C 525.68 452.19 527.29 445.12 528.49 438.90 L 579.28 460.46 C 578.08 466.68 576.47 473.75 576.47 481.85 L 525.68 460.29 Z" fill="#ff3333" fill-rule="nonzero" node-id="328" stroke="none" target-height="42.94696" target-width="53.603027" target-x="525.68" target-y="438.9"></path><path d="M 525.68 466.35 L 525.68 460.27 L 576.47 481.84 L 576.47 487.90 L 525.68 466.35 Z" fill="#ff3333" fill-rule="nonzero" node-id="330" stroke="none" target-height="27.630035" target-width="50.791992" target-x="525.68" target-y="460.27496"></path><path d="M 549.78 516.80 C 535.32 504.82 526.88 486.83 525.68 466.35 L 576.47 487.90 C 577.68 508.39 586.11 526.38 600.57 538.36 L 549.78 516.80 Z" fill="#ff3333" fill-rule="nonzero" node-id="332" stroke="none" target-height="72.01401" target-width="74.88898" target-x="525.68" target-y="466.345"></path><path d="M 580.70 377.06 C 586.72 375.10 593.55 373.05 601.58 372.06 L 652.38 393.62 C 644.34 394.61 637.52 396.66 631.49 398.62 L 580.70 377.06 Z" fill="#ff3333" fill-rule="nonzero" node-id="334" stroke="none" target-height="26.551971" target-width="71.675964" target-x="580.7" target-y="372.065"></path><path d="M 662.02 263.78 L 599.77 336.98 L 548.98 315.42 L 611.23 242.22 L 662.02 263.78 Z M 712.23 231.31 L 662.02 263.77 L 611.23 242.21 L 661.43 209.75 L 712.23 231.31 Z M 711.42 148.04 L 740.74 173.97 L 740.75 173.98 L 712.23 231.30 L 661.44 209.74 L 689.95 152.42 L 689.95 152.42 L 660.63 126.48 L 711.42 148.04 Z" fill="#2679f5" fill-rule="nonzero" node-id="336" stroke="none" target-height="210.496" target-width="191.76703" target-x="548.98" target-y="126.48"></path><path d="M 601.59 372.05 L 607.61 371.31 L 658.41 392.87 L 652.38 393.61 L 601.59 372.05 Z" fill="#ff3333" fill-rule="nonzero" node-id="338" stroke="none" target-height="22.300018" target-width="56.81598" target-x="601.59" target-y="371.30997"></path><path d="M 566.18 526.79 C 560.27 524.28 554.76 520.93 549.77 516.80 L 600.56 538.36 C 605.55 542.50 611.07 545.84 616.98 548.35 L 566.18 526.79 Z" fill="#ff3333" fill-rule="nonzero" node-id="340" stroke="none" target-height="31.552002" target-width="67.204956" target-x="549.77" target-y="516.8"></path><path d="M 607.61 371.32 C 619.46 370.44 630.56 372.35 640.38 376.52 L 691.14 398.07 C 681.33 393.91 670.24 392.00 658.40 392.88 L 607.61 371.32 Z" fill="#ff3333" fill-rule="nonzero" node-id="342" stroke="none" target-height="27.631958" target-width="83.535034" target-x="607.61" target-y="370.44"></path><path d="M 604.54 438.53 L 604.39 438.47 L 655.18 460.03 L 655.33 460.09 L 604.54 438.53 Z" fill="#ff3333" fill-rule="nonzero" node-id="344" stroke="none" target-height="21.615997" target-width="50.940002" target-x="604.39" target-y="438.47"></path><path d="M 604.77 438.63 L 604.55 438.54 L 655.34 460.10 L 655.57 460.19 L 604.77 438.63 Z" fill="#ff3333" fill-rule="nonzero" node-id="346" stroke="none" target-height="21.645996" target-width="51.01703" target-x="604.55" target-y="438.54"></path><path d="M 605.63 438.94 L 604.77 438.61 L 655.56 460.17 L 656.42 460.50 L 605.63 438.94 Z" fill="#ff3333" fill-rule="nonzero" node-id="348" stroke="none" target-height="21.886993" target-width="51.651978" target-x="604.77" target-y="438.61002"></path><path d="M 605.86 439.04 L 605.63 438.95 L 656.42 460.51 L 656.65 460.60 L 605.86 439.04 Z" fill="#ff3333" fill-rule="nonzero" node-id="350" stroke="none" target-height="21.646057" target-width="51.018005" target-x="605.63" target-y="438.95496"></path><path d="M 606.01 439.08 L 605.86 439.02 L 656.65 460.58 L 656.80 460.64 L 606.01 439.08 Z" fill="#ff3333" fill-rule="nonzero" node-id="352" stroke="none" target-height="21.615997" target-width="50.940002" target-x="605.86" target-y="439.025"></path><path d="M 608.37 439.78 C 608.20 439.72 608.03 439.66 607.86 439.60 L 658.65 461.16 C 658.83 461.22 658.99 461.28 659.16 461.34 L 608.37 439.78 Z" fill="#ff3333" fill-rule="nonzero" node-id="354" stroke="none" target-height="21.742004" target-width="51.298035" target-x="607.86" target-y="439.6"></path><path d="M 608.81 439.96 C 608.66 439.91 608.51 439.85 608.36 439.80 L 659.15 461.36 C 659.30 461.41 659.45 461.47 659.60 461.52 L 608.81 439.96 Z" fill="#ff3333" fill-rule="nonzero" node-id="356" stroke="none" target-height="21.728943" target-width="51.239014" target-x="608.36" target-y="439.795"></path><path d="M 609.21 439.90 L 608.81 439.95 L 659.60 461.51 L 660.00 461.46 L 609.21 439.90 Z" fill="#ff3333" fill-rule="nonzero" node-id="358" stroke="none" target-height="21.609009" target-width="51.19403" target-x="608.81" target-y="439.905"></path><path d="M 609.62 441.07 L 609.22 439.90 L 660.01 461.46 L 660.41 462.63 L 609.62 441.07 Z" fill="#ff3333" fill-rule="nonzero" node-id="360" stroke="none" target-height="22.725006" target-width="51.193054" target-x="609.22" target-y="439.905"></path><path d="M 603.19 531.70 C 590.05 533.31 577.43 531.57 566.22 526.82 L 616.98 548.37 C 628.20 553.13 640.83 554.88 653.99 553.26 L 603.19 531.70 Z" fill="#2679f5" fill-rule="nonzero" node-id="362" stroke="none" target-height="28.057983" target-width="87.76599" target-x="566.219" target-y="526.817"></path><path d="M 645.14 482.72 L 700.16 531.81 L 649.37 510.25 L 594.35 461.17 L 645.14 482.72 Z M 644.75 465.79 L 643.94 466.69 L 643.94 466.69 C 641.14 469.46 639.93 474.46 641.13 477.55 L 641.14 477.55 L 643.55 480.90 L 643.54 480.89 C 643.95 481.25 644.75 482.36 645.15 482.72 L 594.36 461.16 C 593.95 460.80 593.15 459.69 592.75 459.33 L 592.76 459.33 L 590.35 455.99 L 590.35 455.99 C 589.14 452.90 590.35 447.90 593.16 445.13 L 593.95 444.23 L 644.75 465.79 Z M 653.99 460.20 C 651.58 460.50 646.76 463.52 644.75 465.79 L 593.96 444.23 C 595.97 441.95 600.79 438.94 603.20 438.64 L 653.99 460.20 Z M 606.01 439.11 C 606.75 439.26 607.34 439.44 607.87 439.62 L 658.66 461.18 C 658.13 461.00 657.54 460.82 656.80 460.67 L 606.01 439.11 Z M 655.19 460.04 L 653.98 460.19 L 603.19 438.63 L 604.39 438.48 L 655.19 460.04 Z" fill="#2679f5" fill-rule="nonzero" node-id="364" stroke="none" target-height="93.33002" target-width="111.02399" target-x="589.141" target-y="438.47998"></path><path d="M 667.86 492.59 L 609.62 441.07 L 660.41 462.63 L 718.65 514.15 L 667.86 492.59 Z" fill="#ff3333" fill-rule="nonzero" node-id="366" stroke="none" target-height="73.08301" target-width="109.028015" target-x="609.62" target-y="441.07"></path><path d="M 638.13 518.50 C 627.69 525.86 617.25 529.97 603.19 531.70 L 653.98 553.26 C 668.04 551.53 678.48 547.42 688.92 540.07 L 638.13 518.50 Z" fill="#2679f5" fill-rule="nonzero" node-id="368" stroke="none" target-height="34.752014" target-width="85.73297" target-x="603.19" target-y="518.505"></path><path d="M 649.38 510.25 L 638.14 518.50 L 688.93 540.07 L 700.18 531.80 L 649.38 510.25 Z" fill="#2679f5" fill-rule="nonzero" node-id="370" stroke="none" target-height="29.820007" target-width="62.03705" target-x="638.14" target-y="510.245"></path><path d="M 691.15 398.09 C 715.96 408.62 732.57 433.57 732.29 464.34 L 732.28 464.34 C 732.28 477.69 728.27 488.30 724.25 498.91 L 724.25 498.90 L 718.63 514.15 L 667.84 492.59 L 673.46 477.33 L 673.47 477.33 C 677.48 466.73 681.49 456.12 681.49 442.77 L 681.49 442.77 C 681.78 412.01 665.16 387.06 640.36 376.53 L 691.15 398.09 Z M 500.56 280.76 L 631.49 398.63 L 580.70 377.07 L 449.77 259.20 L 500.56 280.76 Z M 503.36 254.11 L 503.36 259.35 L 503.37 259.36 C 503.37 267.45 501.77 274.52 500.56 280.74 L 449.77 259.18 C 450.97 252.97 452.58 245.90 452.58 237.81 L 452.57 237.81 L 452.57 232.55 L 503.36 254.11 Z M 478.46 205.37 C 493.32 217.30 502.16 234.83 503.36 254.11 L 452.57 232.55 C 451.37 213.27 442.53 195.74 427.67 183.81 L 478.46 205.37 Z M 463.21 196.46 C 468.68 198.78 473.82 201.77 478.47 205.36 L 427.68 183.80 C 423.03 180.21 417.89 177.22 412.42 174.90 L 463.21 196.46 Z" fill="url(#paint6_linear_135_12811)" fill-rule="nonzero" node-id="372" stroke="none" target-height="339.24698" target-width="320.15292" target-x="412.42" target-y="174.9"></path><path d="M 467.52 426.20 L 352.84 555.82 C 346.65 562.81 337.01 567.78 327.28 568.98 C 317.70 570.16 308.37 567.61 300.01 561.79 C 293.45 555.92 289.77 547.10 289.77 537.41 C 289.77 527.67 293.49 517.89 300.11 510.40 L 300.11 510.40 L 414.87 381.48 L 467.52 426.20 Z M 686.20 153.44 L 659.19 207.73 L 609.83 239.65 L 609.38 239.94 L 609.03 240.35 L 548.93 311.01 L 520.39 285.76 L 582.03 217.64 L 582.39 217.25 L 582.62 216.78 L 608.27 163.51 L 660.05 130.31 L 686.20 153.44 Z" fill="url(#paint7_linear_135_12811)" fill-rule="nonzero" node-id="374" stroke="url(#paint8_linear_135_12811)" stroke-linecap="butt" stroke-width="6.144" target-height="439.84802" target-width="396.428" target-x="289.769" target-y="130.308"></path><path d="M 388.16 238.78 L 334.68 191.46 L 341.18 185.54 C 348.85 178.72 360.11 174.54 375.07 172.70 C 393.16 170.48 411.73 175.59 425.66 186.35 C 439.91 197.81 448.37 214.61 449.54 233.03 L 449.54 238.18 C 449.54 245.90 448.02 252.62 446.79 258.96 L 446.47 260.59 L 447.61 261.62 L 578.53 379.48 L 579.69 380.51 L 581.31 379.99 C 587.28 378.06 593.87 376.08 601.59 375.13 L 607.54 374.40 C 647.58 371.46 678.85 401.79 678.47 443.12 L 678.47 443.15 C 678.47 455.84 674.67 465.93 670.65 476.55 L 670.65 476.56 L 670.64 476.58 L 666.71 487.24 L 612.29 439.09 L 611.42 436.57 L 609.53 436.80 C 608.90 436.57 608.15 436.33 607.20 436.11 L 605.77 435.57 L 605.12 435.32 L 603.20 435.56 C 601.26 435.80 598.93 436.96 597.10 438.08 C 595.18 439.25 593.14 440.79 591.80 442.31 L 591.40 442.76 L 591.04 443.17 C 589.14 445.10 587.91 447.61 587.30 450.02 C 586.68 452.47 586.62 455.17 587.49 457.42 L 587.62 457.73 L 587.81 458.00 L 590.22 461.35 L 590.39 461.58 L 590.60 461.77 C 590.56 461.74 590.59 461.76 590.72 461.91 C 590.84 462.04 590.97 462.20 591.12 462.39 C 591.27 462.57 591.44 462.78 591.60 462.97 C 591.75 463.13 591.96 463.38 592.20 463.59 L 592.20 463.59 L 644.49 510.24 L 636.58 516.06 C 626.65 523.04 616.75 526.96 603.20 528.62 C 583.90 530.99 565.77 525.84 551.88 514.32 C 538.04 502.85 529.91 485.61 528.73 465.88 L 528.73 459.91 C 528.73 452.19 530.26 445.47 531.49 439.14 L 531.80 437.49 L 530.66 436.47 L 398.12 318.80 L 396.88 317.70 L 395.17 318.37 C 389.35 320.64 382.79 322.62 375.07 323.56 L 369.51 324.25 C 349.82 326.27 331.33 320.38 318.25 308.03 C 305.14 295.66 297.80 277.89 297.80 258.03 C 297.80 249.66 300.07 238.87 305.60 224.65 L 305.61 224.62 L 305.62 224.59 L 309.55 213.95 L 364.48 262.93 L 365.37 263.73 L 366.46 263.59 C 367.29 263.87 368.74 264.57 370.36 265.68 L 371.19 266.25 L 375.48 265.72 C 377.90 265.43 379.83 264.70 381.36 263.66 C 382.91 262.61 383.85 261.39 384.44 260.42 L 384.55 260.25 L 384.63 260.07 L 385.21 258.82 L 385.94 258.01 C 388.21 255.91 389.44 253.03 389.92 250.43 C 390.41 247.76 390.22 244.84 389.05 242.62 L 389.00 242.52 L 388.94 242.42 L 388.16 241.22 L 388.16 238.78 Z" fill="url(#paint9_linear_135_12811)" fill-rule="nonzero" node-id="376" stroke="url(#paint10_linear_135_12811)" stroke-linecap="butt" stroke-width="6.144" target-height="360.51" target-width="381.05402" target-x="297.799" target-y="170.484"></path></g></svg>